# xmcd
#
# Track frame offsets:
#	150
#	10468
#	31357
#	61782
#	81524
#	99830
#	130471
#	142707
#	170237
#	195282
#	216734
#
# Disc length: 3146 seconds
# Revision: 2
# Processed by: cddbd v1.5.2PL0 Copyright (c) Steve Scherf et al.
# Submitted via: dBpowerAMP V12.0
#
DISCID=990c480b
DTITLE=Tommy Castro - Jimmy Hall - Lloyd Jones - Triple Trouble
DYEAR=2003
DGENRE=Blues
TTITLE0=Sometimes
TTITLE1=If That Ain't Love
TTITLE2=Be Careful With a Fool
TTITLE3=Love Will
TTITLE4=Help !
TTITLE5=Whole Lotta Soul
TTITLE6=Good Good Lovin'
TTITLE7=Raised in the Country
TTITLE8=Mammer Jammer
TTITLE9=Midnight to Daylight
TTITLE10=Cold Funk
EXTD=
EXTT0=
EXTT1=
EXTT2=
EXTT3=
EXTT4=
EXTT5=
EXTT6=
EXTT7=
EXTT8=
EXTT9=
EXTT10=
PLAYORDER=
